# Blender 3.1.0
# www.blender.org
mtllib balcony.mtl
o building-window-balcony
v 0.500000 0.625000 0.000000
v 0.375000 0.000000 0.000000
v 0.500000 0.000000 0.000000
v 0.375000 0.180000 0.000000
v 0.375000 0.500000 0.000000
v -0.375000 0.500000 0.000000
v -0.500000 0.625000 0.000000
v -0.375000 0.180000 0.000000
v -0.500000 0.000000 0.000000
v -0.375000 0.000000 0.000000
v 0.345428 -0.000000 0.150000
v 0.375000 -0.000000 0.120428
v -0.500000 0.000000 -0.175060
v -0.345428 -0.000000 0.150000
v 0.500000 0.000000 -0.175060
v -0.375000 -0.000000 0.120428
v 0.315855 0.060000 -0.150000
v -0.315855 0.060000 0.090855
v 0.315855 0.060000 0.090855
v -0.315855 0.060000 -0.150000
v 0.375000 0.500000 -0.100000
v -0.375000 0.500000 -0.100000
v -0.500000 0.625000 -0.175060
v 0.500000 0.625000 -0.175060
v 0.345428 0.180000 0.150000
v -0.345428 0.180000 0.150000
v 0.375000 0.180000 0.120428
v 0.315855 0.180000 -0.100000
v 0.375000 0.180000 -0.100000
v 0.315855 0.440855 -0.100000
v -0.315855 0.440855 -0.100000
v -0.375000 0.180000 -0.100000
v -0.315855 0.180000 -0.100000
v -0.315855 0.180000 0.090855
v 0.315855 0.180000 0.090855
v -0.375000 0.180000 0.120428
v 0.315855 0.440855 -0.150000
v -0.315855 0.440855 -0.150000
v -0.272392 0.397884 -0.105335
v -0.272392 0.188157 -0.155335
v -0.272392 0.397884 -0.155335
v -0.272392 0.146156 -0.155335
v -0.272392 0.042002 -0.155336
v -0.272392 0.042002 -0.105335
v 0.001499 0.439885 -0.155335
v -0.312348 0.439885 -0.105335
v 0.001499 0.439885 -0.105335
v -0.312348 0.439885 -0.155335
v -0.312348 -0.000000 -0.105336
v 0.001499 0.000000 -0.155336
v 0.001499 -0.000000 -0.105336
v -0.312348 0.000000 -0.155336
v -0.038458 0.042002 -0.105335
v -0.038458 0.146156 -0.155335
v -0.038458 0.042002 -0.155336
v -0.038458 0.188157 -0.155335
v -0.038458 0.397884 -0.155335
v -0.038458 0.397884 -0.105335
v 0.040633 0.397884 -0.107368
v 0.040633 0.188157 -0.157368
v 0.040633 0.397884 -0.157368
v 0.040633 0.146156 -0.157368
v 0.040633 0.042002 -0.157368
v 0.040633 0.042002 -0.107368
v 0.314524 0.439885 -0.157368
v 0.000677 0.439885 -0.107368
v 0.314524 0.439885 -0.107368
v 0.000677 0.439885 -0.157368
v 0.000677 -0.000000 -0.107368
v 0.314524 0.000000 -0.157368
v 0.314524 -0.000000 -0.107368
v 0.000677 0.000000 -0.157368
v 0.274568 0.042002 -0.107368
v 0.274568 0.146156 -0.157368
v 0.274568 0.042002 -0.157368
v 0.274568 0.188157 -0.157368
v 0.274568 0.397884 -0.157368
v 0.274568 0.397884 -0.107368
vn -0.0000 -0.0000 1.0000
vn -0.0000 -1.0000 -0.0000
vn -0.0000 1.0000 -0.0000
vn -0.0000 -0.0000 -1.0000
vn 0.3827 -0.0000 0.9239
vn -0.3827 -0.0000 0.9239
vn 0.9239 -0.0000 0.3827
vn 1.0000 -0.0000 -0.0000
vn -1.0000 -0.0000 -0.0000
vn -0.9239 -0.0000 0.3827
vt 0.968750 0.225000
vt 0.968750 0.025000
vt 0.968750 0.025000
vt 0.968750 0.082600
vt 0.968750 0.185000
vt 0.968750 0.185000
vt 0.968750 0.225000
vt 0.968750 0.082600
vt 0.968750 0.025000
vt 0.968750 0.025000
vt 0.968750 0.025000
vt 0.968750 0.025000
vt 0.968750 0.025000
vt 0.968750 0.025000
vt 0.968750 0.025000
vt 0.968750 0.025000
vt 0.968750 0.044200
vt 0.718750 0.294200
vt 0.968750 0.044200
vt 0.968750 0.044200
vt 0.968750 0.044200
vt 0.718750 0.294200
vt 0.968750 0.185000
vt 0.968750 0.185000
vt 0.968750 0.225000
vt 0.968750 0.225000
vt 0.968750 0.082600
vt 0.968750 0.082600
vt 0.968750 0.082600
vt 0.968750 0.082600
vt 0.968750 0.082600
vt 0.968750 0.166074
vt 0.968750 0.166074
vt 0.968750 0.082600
vt 0.968750 0.082600
vt 0.968750 0.082600
vt 0.968750 0.082600
vt 0.968750 0.082600
vt 0.968750 0.166074
vt 0.718750 0.416074
vt 0.968750 0.166074
vt 0.718750 0.416074
vt 0.593750 0.205903
vt 0.593750 0.110548
vt 0.593750 0.205903
vt 0.593750 0.091452
vt 0.593750 0.044097
vt 0.593750 0.044097
vt 0.593750 0.225000
vt 0.593750 0.225000
vt 0.593750 0.225000
vt 0.593750 0.225000
vt 0.593750 0.025000
vt 0.593750 0.025000
vt 0.593750 0.025000
vt 0.593750 0.025000
vt 0.593750 0.044097
vt 0.593750 0.091452
vt 0.593750 0.044097
vt 0.593750 0.110548
vt 0.593750 0.205903
vt 0.593750 0.205903
vt 0.593750 0.205903
vt 0.593750 0.110548
vt 0.593750 0.205903
vt 0.593750 0.091452
vt 0.593750 0.044097
vt 0.593750 0.044097
vt 0.593750 0.225000
vt 0.593750 0.225000
vt 0.593750 0.225000
vt 0.593750 0.225000
vt 0.593750 0.025000
vt 0.593750 0.025000
vt 0.593750 0.025000
vt 0.593750 0.025000
vt 0.593750 0.044097
vt 0.593750 0.091452
vt 0.593750 0.044097
vt 0.593750 0.110548
vt 0.593750 0.205903
vt 0.593750 0.205903
s 1
usemtl colormap.009
f 1/1/1 2/2/1 3/3/1
f 2/2/1 1/1/1 4/4/1
f 4/4/1 1/1/1 5/5/1
f 7/7/1 6/6/1 1/1/1
f 9/9/1 8/8/1 7/7/1
f 15/15/2 2/2/2 13/13/2
f 2/2/2 15/15/2 3/3/2
f 13/13/2 14/14/2 10/10/3
f 10/10/3 14/14/2 16/16/2
f 13/13/2 10/10/3 9/9/2
f 18/19/3 17/17/3 20/21/3
f 23/25/4 15/15/4 13/13/4
f 15/15/4 23/25/4 24/26/4
f 25/27/5 14/14/6 11/11/5
f 14/14/6 25/27/5 26/28/6
f 27/29/7 2/2/8 4/4/8
f 2/2/8 27/29/7 12/12/7
f 21/23/1 28/30/1 29/31/1
f 19/20/4 34/36/4 35/37/4
f 15/15/8 1/1/8 3/3/8
f 4/4/3 25/27/3 27/29/3
f 25/27/3 4/4/3 29/31/3
f 25/27/3 29/31/3 28/30/3
f 25/27/3 28/30/3 35/37/3
f 26/28/3 32/34/3 8/8/3
f 17/17/9 30/32/9 37/39/9
f 30/32/9 17/17/9 28/30/9
f 4/4/9 21/23/9 29/31/9
f 21/23/9 4/4/9 5/5/9
f 31/33/8 20/21/8 38/41/8
f 20/21/8 31/33/8 33/35/8
f 18/19/8 33/35/8 34/36/8
f 26/28/6 16/16/10 14/14/6
f 16/16/10 26/28/6 36/38/10
f 37/39/2 31/33/2 38/41/2
f 25/27/5 12/12/7 27/29/7
f 23/25/9 9/9/9 7/7/9
f 20/22/1 37/40/1 38/42/1
f 5/5/1 1/1/1 6/6/1
f 7/7/1 8/8/1 6/6/1
f 8/8/1 9/9/1 10/10/1
f 11/11/2 2/2/2 12/12/2
f 13/13/2 2/2/2 11/11/2
f 13/13/2 11/11/2 14/14/2
f 17/17/3 18/19/3 19/20/3
f 6/6/2 21/23/2 5/5/2
f 21/23/2 6/6/2 22/24/2
f 28/30/1 21/23/1 30/32/1
f 30/32/1 21/23/1 31/33/1
f 22/24/1 31/33/1 21/23/1
f 32/34/1 31/33/1 22/24/1
f 31/33/1 32/34/1 33/35/1
f 34/36/4 19/20/4 18/19/4
f 1/1/8 15/15/8 24/26/8
f 35/37/3 26/28/3 25/27/3
f 26/28/3 35/37/3 34/36/3
f 26/28/3 34/36/3 33/35/3
f 26/28/3 33/35/3 32/34/3
f 26/28/3 8/8/3 36/38/3
f 28/30/9 17/17/9 19/20/9
f 28/30/9 19/20/9 35/37/9
f 16/16/10 8/8/9 10/10/9
f 8/8/9 16/16/10 36/38/10
f 6/6/8 32/34/8 22/24/8
f 32/34/8 6/6/8 8/8/8
f 20/21/8 33/35/8 18/19/8
f 31/33/2 37/39/2 30/32/2
f 24/26/3 7/7/3 1/1/3
f 7/7/3 24/26/3 23/25/3
f 12/12/7 25/27/5 11/11/5
f 9/9/9 23/25/9 13/13/9
f 37/40/1 20/22/1 17/18/1
usemtl colormap.011
f 39/43/8 40/44/8 41/45/8
f 40/44/8 39/43/8 42/46/8
f 42/46/8 39/43/8 43/47/8
f 45/49/3 46/50/3 47/51/3
f 46/50/3 45/49/3 48/52/3
f 54/58/9 53/57/9 56/60/9
f 56/60/9 53/57/9 57/61/9
f 57/61/2 39/43/2 41/45/2
f 49/53/9 48/52/9 52/56/9
f 47/51/8 50/54/8 45/49/8
f 53/57/1 47/51/1 58/62/1
f 58/62/1 47/51/1 39/43/1
f 46/50/1 44/48/1 39/43/1
f 49/53/1 44/48/1 46/50/1
f 42/46/4 48/52/4 40/44/4
f 41/45/4 48/52/4 57/61/4
f 43/47/4 52/56/4 48/52/4
f 52/56/4 43/47/4 50/54/4
f 55/59/4 50/54/4 43/47/4
f 45/49/4 54/58/4 56/60/4
f 43/47/8 39/43/8 44/48/8
f 49/53/2 50/54/2 51/55/2
f 50/54/2 49/53/2 52/56/2
f 53/57/9 54/58/9 55/59/9
f 57/61/9 53/57/9 58/62/9
f 39/43/2 57/61/2 58/62/2
f 48/52/9 49/53/9 46/50/9
f 50/54/8 47/51/8 51/55/8
f 55/59/3 44/48/3 53/57/3
f 44/48/3 55/59/3 43/47/3
f 53/57/1 51/55/1 47/51/1
f 46/50/1 39/43/1 47/51/1
f 51/55/1 53/57/1 49/53/1
f 44/48/1 49/53/1 53/57/1
f 40/44/4 48/52/4 41/45/4
f 43/47/4 48/52/4 42/46/4
f 45/49/4 57/61/4 48/52/4
f 50/54/4 55/59/4 45/49/4
f 45/49/4 56/60/4 57/61/4
f 45/49/4 55/59/4 54/58/4
usemtl colormap.012
f 59/63/8 60/64/8 61/65/8
f 60/64/8 59/63/8 62/66/8
f 62/66/8 59/63/8 63/67/8
f 65/69/3 66/70/3 67/71/3
f 66/70/3 65/69/3 68/72/3
f 74/78/9 73/77/9 76/80/9
f 76/80/9 73/77/9 77/81/9
f 77/81/2 59/63/2 61/65/2
f 69/73/9 68/72/9 72/76/9
f 67/71/8 70/74/8 65/69/8
f 73/77/1 67/71/1 78/82/1
f 78/82/1 67/71/1 59/63/1
f 66/70/1 64/68/1 59/63/1
f 69/73/1 64/68/1 66/70/1
f 62/66/4 68/72/4 60/64/4
f 61/65/4 68/72/4 77/81/4
f 63/67/4 72/76/4 68/72/4
f 72/76/4 63/67/4 70/74/4
f 75/79/4 70/74/4 63/67/4
f 65/69/4 74/78/4 76/80/4
f 63/67/8 59/63/8 64/68/8
f 69/73/2 70/74/2 71/75/2
f 70/74/2 69/73/2 72/76/2
f 73/77/9 74/78/9 75/79/9
f 77/81/9 73/77/9 78/82/9
f 59/63/2 77/81/2 78/82/2
f 68/72/9 69/73/9 66/70/9
f 70/74/8 67/71/8 71/75/8
f 75/79/3 64/68/3 73/77/3
f 64/68/3 75/79/3 63/67/3
f 73/77/1 71/75/1 67/71/1
f 66/70/1 59/63/1 67/71/1
f 71/75/1 73/77/1 69/73/1
f 64/68/1 69/73/1 73/77/1
f 60/64/4 68/72/4 61/65/4
f 63/67/4 68/72/4 62/66/4
f 65/69/4 77/81/4 68/72/4
f 70/74/4 75/79/4 65/69/4
f 65/69/4 76/80/4 77/81/4
f 65/69/4 75/79/4 74/78/4
