# Blender 3.1.0
# www.blender.org
mtllib doorframe_glass_tent.mtl
o window-white-round-middle
o building-door-window.001
v -0.354167 0.500000 0.000000
v -0.104167 0.500000 -0.100000
v -0.104167 0.500000 0.000000
v -0.354167 0.500000 -0.100000
v 0.020833 0.500000 0.000000
v 0.395833 0.500000 -0.100000
v 0.395833 0.500000 0.000000
v 0.020833 0.500000 -0.100000
v -0.354167 0.000000 -0.100000
v -0.354167 0.000000 0.000000
v 0.395833 0.000000 0.000000
v 0.395833 0.000000 -0.100000
v 0.520833 0.625000 -0.119767
v -0.479167 0.625000 0.000000
v 0.520833 0.625000 0.000000
v -0.479167 0.625000 -0.119767
v 0.520833 0.000000 -0.119767
v 0.020833 0.000000 -0.100000
v 0.020833 0.000000 0.000000
v -0.479167 0.000000 -0.119767
v -0.479167 0.000000 0.000000
v 0.520833 0.000000 0.000000
v -0.104167 0.000000 0.000000
v -0.104167 0.000000 -0.100000
v 0.282735 0.503447 0.138403
v 0.457217 0.503447 0.001267
v 0.457217 0.503447 0.138403
v 0.282735 0.503447 0.001267
v 0.457217 0.609448 0.001267
v 0.457217 0.578401 0.098237
v 0.282735 0.578401 0.098237
v 0.282735 0.609448 0.001267
v -0.415193 0.503447 0.001267
v -0.240711 0.503447 0.138403
v -0.415193 0.503447 0.138403
v -0.240711 0.503447 0.001267
v -0.240711 0.578401 0.098237
v -0.415193 0.609448 0.001267
v -0.415193 0.578401 0.098237
v -0.240711 0.609448 0.001267
v -0.066229 0.503447 0.001267
v 0.108253 0.503447 0.138403
v -0.066229 0.503447 0.138403
v 0.108253 0.503447 0.001267
v 0.108253 0.578401 0.098237
v -0.066229 0.609448 0.001267
v -0.066229 0.578401 0.098237
v 0.108253 0.609448 0.001267
v 0.108253 0.503447 0.001267
v 0.282735 0.503447 0.138403
v 0.108253 0.503447 0.138403
v 0.282735 0.503447 0.001267
v 0.282735 0.578401 0.098237
v 0.108253 0.609448 0.001267
v 0.108253 0.578401 0.098237
v 0.282735 0.609448 0.001267
v -0.240711 0.503447 0.001267
v -0.066229 0.503447 0.138403
v -0.240711 0.503447 0.138403
v -0.066229 0.503447 0.001267
v -0.066229 0.578401 0.098237
v -0.240711 0.609448 0.001267
v -0.066229 0.609448 0.001267
v 0.457217 0.609448 -0.107304
v 0.282735 0.609448 0.001267
v 0.457217 0.609448 0.001267
v 0.108253 0.609448 0.001267
v -0.066229 0.609448 0.001267
v -0.240711 0.609448 0.001267
v -0.415193 0.609448 -0.107305
v -0.415193 0.609448 0.001267
v -0.415193 0.503447 0.001267
v -0.415193 0.503447 -0.107305
v 0.457217 0.503447 -0.107305
v 0.457217 0.503447 0.001267
v -0.240711 0.503447 0.001267
v -0.066229 0.503447 0.001267
v 0.108253 0.503447 0.001267
v 0.282735 0.503447 0.001267
vn -0.0000 -1.0000 -0.0000
vn 1.0000 -0.0000 -0.0000
vn -1.0000 -0.0000 -0.0000
vn -0.0000 1.0000 -0.0000
vn -0.0000 -0.0000 -1.0000
vn -0.0000 -0.0000 1.0000
vn -0.0000 0.4723 0.8814
vn -0.0270 0.8088 0.5874
vn -0.0000 0.7685 0.6399
vn -0.0206 0.7371 0.6755
vn -0.0000 0.9524 0.3049
vn -0.0269 0.8091 0.5871
vn 0.0518 0.7703 0.6356
vn -0.0270 0.8091 0.5871
vn 0.0395 0.7641 0.6439
vt 0.968750 0.185000
vt 0.718750 0.435000
vt 0.968750 0.185000
vt 0.968750 0.185000
vt 0.968750 0.185000
vt 0.718750 0.435000
vt 0.968750 0.185000
vt 0.718750 0.435000
vt 0.968750 0.185000
vt 0.968750 0.185000
vt 0.718750 0.435000
vt 0.968750 0.185000
vt 0.718750 0.275000
vt 0.968750 0.025000
vt 0.968750 0.025000
vt 0.968750 0.025000
vt 0.718750 0.275000
vt 0.968750 0.025000
vt 0.968750 0.225000
vt 0.968750 0.225000
vt 0.968750 0.225000
vt 0.968750 0.225000
vt 0.968750 0.025000
vt 0.718750 0.275000
vt 0.968750 0.025000
vt 0.968750 0.025000
vt 0.968750 0.025000
vt 0.968750 0.025000
vt 0.968750 0.025000
vt 0.968750 0.025000
vt 0.718750 0.275000
vt 0.968750 0.025000
vt 0.593750 0.025000
vt 0.593750 0.025000
vt 0.593750 0.025000
vt 0.593750 0.025000
vt 0.593750 0.225000
vt 0.593750 0.166421
vt 0.593750 0.166421
vt 0.593750 0.225000
vt 0.593750 0.025000
vt 0.093750 0.275000
vt 0.593750 0.025000
vt 0.593750 0.025000
vt 0.093750 0.275000
vt 0.593750 0.025000
vt 0.093750 0.416421
vt 0.593750 0.166421
vt 0.593750 0.225000
vt 0.093750 0.475000
vt 0.593750 0.166421
vt 0.593750 0.225000
vt 0.593750 0.025000
vt 0.593750 0.025000
vt 0.593750 0.025000
vt 0.593750 0.025000
vt 0.593750 0.166421
vt 0.593750 0.225000
vt 0.593750 0.166421
vt 0.593750 0.225000
vt 0.093750 0.275000
vt 0.093750 0.275000
vt 0.093750 0.275000
vt 0.093750 0.275000
vt 0.093750 0.416421
vt 0.093750 0.475000
vt 0.093750 0.416421
vt 0.093750 0.475000
vt 0.093750 0.275000
vt 0.093750 0.275000
vt 0.093750 0.275000
vt 0.093750 0.275000
vt 0.093750 0.416421
vt 0.093750 0.475000
vt 0.093750 0.475000
vt 0.843750 0.225000
vt 0.843750 0.225000
vt 0.843750 0.225000
vt 0.843750 0.225000
vt 0.843750 0.225000
vt 0.843750 0.225000
vt 0.843750 0.225000
vt 0.843750 0.225000
vt 0.843750 0.025000
vt 0.843750 0.025000
vt 0.843750 0.025000
vt 0.843750 0.025000
vt 0.843750 0.025000
vt 0.843750 0.025000
vt 0.843750 0.025000
vt 0.843750 0.025000
s 1
usemtl colormap.031
f 1/1/1 2/3/1 3/4/1
f 2/3/1 1/1/1 4/5/1
f 5/7/1 6/9/1 7/10/1
f 6/9/1 5/7/1 8/12/1
f 1/1/2 9/14/2 4/5/2
f 9/14/2 1/1/2 10/15/2
f 11/16/3 6/9/3 12/18/3
f 13/19/4 14/20/4 15/21/4
f 14/20/4 13/19/4 16/22/4
f 17/23/5 16/22/5 13/19/5
f 18/25/2 5/7/2 19/26/2
f 20/27/1 9/14/1 21/28/1
f 21/28/1 9/14/1 10/15/1
f 17/23/1 12/18/1 20/27/1
f 11/16/1 17/23/1 22/29/1
f 11/16/6 15/21/6 7/10/6
f 5/7/6 23/30/6 19/26/6
f 3/4/6 15/21/6 1/1/6
f 14/20/6 1/1/6 15/21/6
f 1/1/6 21/28/6 10/15/6
f 6/8/6 18/24/6 12/17/6
f 18/24/6 6/8/6 8/11/6
f 2/2/6 9/13/6 24/31/6
f 9/13/6 2/2/6 4/6/6
f 23/30/3 2/3/3 24/32/3
f 2/3/3 23/30/3 3/4/3
f 15/21/2 17/23/2 13/19/2
f 17/23/2 15/21/2 22/29/2
f 6/9/3 11/16/3 7/10/3
f 16/22/5 17/23/5 20/27/5
f 21/28/3 16/22/3 20/27/3
f 16/22/3 21/28/3 14/20/3
f 5/7/2 18/25/2 8/12/2
f 23/30/1 18/25/1 19/26/1
f 24/32/1 18/25/1 23/30/1
f 20/27/1 18/25/1 24/32/1
f 20/27/1 24/32/1 9/14/1
f 20/27/1 12/18/1 18/25/1
f 17/23/1 11/16/1 12/18/1
f 15/21/6 11/16/6 22/29/6
f 7/10/6 15/21/6 5/7/6
f 5/7/6 15/21/6 3/4/6
f 23/30/6 5/7/6 3/4/6
f 21/28/6 1/1/6 14/20/6
usemtl colormap.033
f 25/33/1 26/34/1 27/35/1
f 29/37/2 27/35/2 26/34/2
f 25/33/7 30/38/8 31/39/9
f 37/48/10 38/49/11 39/51/9
f 38/49/3 35/44/3 39/51/3
f 39/51/9 34/43/7 37/48/10
f 34/43/7 39/51/9 35/44/7
f 42/54/1 41/53/1 44/56/1
f 45/57/12 46/58/11 47/59/9
f 45/57/13 43/55/7 42/54/7
f 50/62/1 49/61/1 52/64/1
f 53/65/13 51/63/7 50/62/7
f 51/63/7 53/65/14 55/67/9
f 57/69/1 58/70/1 59/71/1
f 61/73/14 62/74/11 37/47/9
f 62/74/11 61/73/14 63/75/11
f 59/71/7 61/73/14 37/47/9
f 65/77/4 64/76/4 67/79/4
f 70/82/4 69/81/4 64/76/4
f 70/82/3 72/84/3 71/83/3
f 73/85/5 64/76/5 74/86/5
f 64/76/5 73/85/5 70/82/5
f 73/85/1 76/88/1 72/84/1
f 76/88/1 73/85/1 77/89/1
f 74/86/1 79/91/1 73/85/1
f 79/91/1 74/86/1 75/87/1
f 26/34/1 25/33/1 28/36/1
f 27/35/2 29/37/2 30/38/2
f 29/37/11 31/39/9 30/38/8
f 31/39/9 29/37/11 32/40/11
f 30/38/13 25/33/7 27/35/7
f 33/41/1 34/43/1 35/44/1
f 34/43/1 33/41/1 36/46/1
f 38/49/11 37/48/15 40/52/11
f 41/53/1 42/54/1 43/55/1
f 46/58/11 45/57/12 48/60/11
f 43/55/7 45/57/12 47/59/9
f 49/61/1 50/62/1 51/63/1
f 53/65/14 54/66/11 55/67/9
f 54/66/11 53/65/14 56/68/11
f 33/42/2 38/50/2 35/45/2
f 58/70/1 57/69/1 60/72/1
f 61/73/13 59/71/7 58/70/7
f 64/76/4 65/77/4 66/78/4
f 67/79/4 64/76/4 68/80/4
f 68/80/4 64/76/4 69/81/4
f 69/81/4 70/82/4 71/83/4
f 72/84/3 70/82/3 73/85/3
f 64/76/2 75/87/2 74/86/2
f 75/87/2 64/76/2 66/78/2
f 77/89/1 73/85/1 78/90/1
f 78/90/1 73/85/1 79/91/1
o window-white-large.003
v 0.397155 0.500000 -0.067577
v 0.022155 0.500000 -0.017577
v 0.397155 0.500000 -0.017577
v 0.022155 0.500000 -0.067577
v 0.397155 0.000000 -0.067577
v 0.397155 0.000000 -0.017577
v 0.349413 0.047742 -0.067577
v 0.069897 0.047742 -0.017577
v 0.349413 0.047742 -0.017577
v 0.022155 0.000000 -0.017577
v 0.022155 0.000000 -0.067577
v 0.349413 0.166129 -0.067577
v 0.349413 0.452258 -0.067577
v 0.349413 0.452258 -0.017577
v 0.069897 0.213871 -0.067577
v 0.069897 0.452258 -0.017577
v 0.069897 0.166129 -0.067577
v 0.069897 0.047742 -0.067577
v 0.069897 0.452258 -0.067577
v 0.349413 0.213871 -0.067577
vn -0.0000 1.0000 -0.0000
vn 1.0000 -0.0000 -0.0000
vn -0.0000 -1.0000 -0.0000
vn -1.0000 -0.0000 -0.0000
vn -0.0000 -0.0000 1.0000
vn -0.0000 -0.0000 -1.0000
vt 0.468750 0.225000
vt 0.468750 0.225000
vt 0.468750 0.225000
vt 0.468750 0.225000
vt 0.468750 0.025000
vt 0.468750 0.025000
vt 0.468750 0.044097
vt 0.468750 0.044097
vt 0.468750 0.044097
vt 0.468750 0.025000
vt 0.468750 0.025000
vt 0.468750 0.091452
vt 0.468750 0.205903
vt 0.468750 0.205903
vt 0.468750 0.110548
vt 0.468750 0.205903
vt 0.468750 0.091452
vt 0.468750 0.044097
vt 0.468750 0.205903
vt 0.468750 0.110548
s 1
usemtl colormap.032
f 80/92/16 81/93/16 82/94/16
f 81/93/16 80/92/16 83/95/16
f 82/94/17 84/96/17 80/92/17
f 84/96/17 82/94/17 85/97/17
f 86/98/16 87/99/16 88/100/16
f 89/101/18 84/96/18 85/97/18
f 84/96/18 89/101/18 90/102/18
f 88/100/19 91/103/19 86/98/19
f 92/104/19 88/100/19 93/105/19
f 94/106/17 95/107/17 96/108/17
f 96/108/17 95/107/17 97/109/17
f 97/109/17 95/107/17 87/99/17
f 85/97/20 88/100/20 89/101/20
f 88/100/20 85/97/20 82/94/20
f 87/99/20 89/101/20 88/100/20
f 88/100/20 82/94/20 93/105/20
f 89/101/20 87/99/20 81/93/20
f 86/98/21 84/96/21 97/109/21
f 90/102/21 97/109/21 84/96/21
f 98/110/21 83/95/21 92/104/21
f 96/108/21 83/95/21 94/106/21
f 87/99/16 86/98/16 97/109/16
f 89/101/19 83/95/19 90/102/19
f 83/95/19 89/101/19 81/93/19
f 91/103/19 88/100/19 99/111/19
f 99/111/19 88/100/19 92/104/19
f 95/107/18 92/104/18 93/105/18
f 92/104/18 95/107/18 98/110/18
f 95/107/17 94/106/17 98/110/17
f 93/105/20 82/94/20 95/107/20
f 81/93/20 87/99/20 95/107/20
f 81/93/20 95/107/20 82/94/20
f 80/92/21 91/103/21 99/111/21
f 80/92/21 99/111/21 92/104/21
f 80/92/21 86/98/21 91/103/21
f 84/96/21 86/98/21 80/92/21
f 80/92/21 92/104/21 83/95/21
f 97/109/21 90/102/21 83/95/21
f 97/109/21 83/95/21 96/108/21
f 94/106/21 83/95/21 98/110/21
