# Blender 3.1.0
# www.blender.org
mtllib Twin_window_tents.mtl
o building-window-awnings
v -0.062500 0.500000 -0.100000
v -0.375000 0.120000 -0.100000
v -0.062500 0.120000 -0.100000
v -0.375000 0.500000 -0.100000
v 0.375000 0.500000 -0.100000
v 0.062500 0.120000 -0.100000
v 0.375000 0.120000 -0.100000
v 0.062500 0.500000 -0.100000
v -0.062500 0.444444 0.000000
v -0.375000 0.500000 0.000000
v -0.062500 0.500000 0.000000
v -0.375000 0.444444 0.000000
v -0.062500 0.375000 0.000000
v -0.375000 0.375000 0.000000
v 0.062500 0.375000 0.128250
v 0.062500 0.444444 0.000000
v 0.062500 0.375000 0.000000
v 0.062500 0.500000 0.000000
v 0.062500 0.463388 0.090686
v -0.375000 0.375000 0.128250
v -0.375000 0.463388 0.090686
v 0.375000 0.444444 0.000000
v 0.375000 0.500000 0.000000
v 0.375000 0.375000 0.000000
v -0.062500 0.375000 0.128250
v 0.375000 0.375000 0.128250
v 0.375000 0.463388 0.090686
v -0.062500 0.463388 0.090686
v -0.112500 0.120000 0.050000
v -0.325000 0.060000 0.050000
v -0.112500 0.060000 0.050000
v -0.325000 0.120000 0.050000
v 0.500000 0.625000 -0.114812
v -0.500000 0.625000 0.000000
v 0.500000 0.625000 0.000000
v -0.500000 0.625000 -0.114812
v 0.325000 0.120000 0.050000
v 0.375000 0.120000 0.000000
v 0.112500 0.120000 0.050000
v 0.062500 0.120000 0.000000
v -0.062500 0.120000 0.000000
v 0.500000 0.000000 -0.114812
v -0.500000 0.000000 -0.114812
v -0.500000 0.000000 0.000000
v 0.112500 0.060000 0.050000
v 0.325000 0.060000 0.050000
v -0.375000 0.120000 0.000000
v 0.062500 0.060000 0.000000
v 0.375000 0.060000 0.000000
v 0.500000 0.000000 0.000000
v -0.375000 0.060000 0.000000
v -0.062500 0.060000 0.000000
v 0.321882 0.324072 -0.028856
v 0.104865 0.276330 -0.028856
v 0.321882 0.276330 -0.028856
v 0.104865 0.324072 -0.028856
v 0.369624 0.490201 -0.053856
v 0.057124 0.490201 -0.003856
v 0.369624 0.490201 -0.003856
v 0.057124 0.490201 -0.053856
v 0.057124 0.110201 -0.003856
v 0.369624 0.110201 -0.053856
v 0.369624 0.110201 -0.003856
v 0.057124 0.110201 -0.053856
v 0.321882 0.157943 -0.003856
v 0.321882 0.442459 -0.053856
v 0.321882 0.157943 -0.053856
v 0.321882 0.442459 -0.003856
v 0.104865 0.442459 -0.003856
v 0.104865 0.157943 -0.053856
v 0.104865 0.442459 -0.053856
v 0.104865 0.157943 -0.003856
v -0.106935 0.324072 -0.028856
v -0.323952 0.276330 -0.028856
v -0.106935 0.276330 -0.028856
v -0.323952 0.324072 -0.028856
v -0.059194 0.490201 -0.053856
v -0.371694 0.490201 -0.003856
v -0.059194 0.490201 -0.003856
v -0.371694 0.490201 -0.053856
v -0.371694 0.110201 -0.003856
v -0.059194 0.110201 -0.053856
v -0.059194 0.110201 -0.003856
v -0.371694 0.110201 -0.053856
v -0.106935 0.157943 -0.003856
v -0.106935 0.442459 -0.053856
v -0.106935 0.157943 -0.053856
v -0.106935 0.442459 -0.003856
v -0.323952 0.442459 -0.003856
v -0.323952 0.157943 -0.053856
v -0.323952 0.442459 -0.053856
v -0.323952 0.157943 -0.003856
vn -0.0000 -0.0000 1.0000
vn -0.0000 -0.0000 -1.0000
vn -1.0000 -0.0000 -0.0000
vn -0.0000 -1.0000 -0.0000
vn 1.0000 -0.0000 -0.0000
vn -0.0000 0.9273 0.3744
vn -0.0000 0.7135 0.7007
vn -0.0000 0.3911 0.9203
vn 0.3827 -0.0000 0.9239
vn -0.3827 -0.0000 0.9239
vn -0.0000 1.0000 -0.0000
vn 1.0000 -0.0000 0.0002
vn -0.7071 -0.0000 0.7071
vn 0.7071 -0.0000 0.7071
vt 0.718750 0.435000
vt 0.968750 0.185000
vt 0.718750 0.313400
vt 0.968750 0.063400
vt 0.718750 0.313400
vt 0.968750 0.063400
vt 0.718750 0.435000
vt 0.968750 0.185000
vt 0.718750 0.435000
vt 0.968750 0.185000
vt 0.718750 0.313400
vt 0.968750 0.063400
vt 0.718750 0.313400
vt 0.968750 0.063400
vt 0.718750 0.435000
vt 0.968750 0.185000
vt 0.093750 0.417222
vt 0.968750 0.167222
vt 0.093750 0.435000
vt 0.968750 0.185000
vt 0.093750 0.435000
vt 0.968750 0.185000
vt 0.093750 0.417222
vt 0.968750 0.167222
vt 0.093750 0.395000
vt 0.968750 0.145000
vt 0.093750 0.395000
vt 0.968750 0.145000
vt 0.093750 0.395000
vt 0.093750 0.417222
vt 0.968750 0.167222
vt 0.968750 0.145000
vt 0.093750 0.395000
vt 0.093750 0.435000
vt 0.968750 0.185000
vt 0.093750 0.423284
vt 0.093750 0.395000
vt 0.093750 0.423284
vt 0.093750 0.417222
vt 0.968750 0.167222
vt 0.093750 0.435000
vt 0.968750 0.185000
vt 0.093750 0.395000
vt 0.968750 0.145000
vt 0.093750 0.395000
vt 0.093750 0.395000
vt 0.093750 0.423284
vt 0.093750 0.423284
vt 0.968750 0.063400
vt 0.968750 0.044200
vt 0.968750 0.044200
vt 0.968750 0.063400
vt 0.968750 0.225000
vt 0.968750 0.225000
vt 0.968750 0.225000
vt 0.968750 0.225000
vt 0.968750 0.063400
vt 0.968750 0.063400
vt 0.968750 0.063400
vt 0.968750 0.063400
vt 0.968750 0.063400
vt 0.968750 0.025000
vt 0.968750 0.025000
vt 0.968750 0.025000
vt 0.968750 0.044200
vt 0.968750 0.044200
vt 0.968750 0.063400
vt 0.968750 0.044200
vt 0.968750 0.044200
vt 0.968750 0.025000
vt 0.968750 0.044200
vt 0.968750 0.044200
vt 0.593750 0.137564
vt 0.593750 0.112436
vt 0.593750 0.112436
vt 0.593750 0.137564
vt 0.593750 0.225000
vt 0.593750 0.225000
vt 0.593750 0.225000
vt 0.593750 0.225000
vt 0.593750 0.025000
vt 0.593750 0.025000
vt 0.593750 0.025000
vt 0.593750 0.025000
vt 0.593750 0.050127
vt 0.593750 0.199873
vt 0.593750 0.050127
vt 0.593750 0.199873
vt 0.593750 0.199873
vt 0.593750 0.050127
vt 0.593750 0.199873
vt 0.593750 0.050127
vt 0.593750 0.137564
vt 0.593750 0.112436
vt 0.593750 0.112436
vt 0.593750 0.137564
vt 0.593750 0.225000
vt 0.593750 0.225000
vt 0.593750 0.225000
vt 0.593750 0.225000
vt 0.593750 0.025000
vt 0.593750 0.025000
vt 0.593750 0.025000
vt 0.593750 0.025000
vt 0.593750 0.050127
vt 0.593750 0.199873
vt 0.593750 0.050127
vt 0.593750 0.199873
vt 0.593750 0.199873
vt 0.593750 0.050127
vt 0.593750 0.199873
vt 0.593750 0.050127
s 1
usemtl colormap.004
f 1/1/1 2/3/1 3/5/1
f 2/3/1 1/1/1 4/7/1
f 5/9/1 6/11/1 7/13/1
f 6/11/1 5/9/1 8/15/1
f 9/17/2 10/19/2 11/21/2
f 13/25/2 12/23/2 9/17/2
f 16/30/3 15/29/3 18/34/3
f 18/34/3 15/29/3 19/36/3
f 20/37/3 12/23/3 14/27/3
f 12/23/3 20/37/3 10/19/3
f 22/39/2 18/34/2 23/41/2
f 18/34/2 22/39/2 16/30/2
f 24/43/2 16/30/2 22/39/2
f 16/30/2 24/43/2 17/33/2
f 20/37/4 13/25/4 25/45/4
f 15/29/4 24/43/4 26/46/4
f 24/43/4 15/29/4 17/33/4
f 22/39/5 27/47/5 24/43/5
f 24/43/5 27/47/5 26/46/5
f 28/48/5 9/17/5 11/21/5
f 11/21/6 21/38/7 28/48/7
f 19/36/7 26/46/8 27/47/7
f 21/38/7 25/45/8 28/48/7
f 29/49/9 30/50/10 31/51/9
f 30/50/10 29/49/9 32/52/10
f 33/53/11 34/54/11 35/55/11
f 34/54/11 33/53/11 36/56/11
f 37/57/11 7/14/11 6/12/11
f 37/57/11 6/12/11 39/59/11
f 41/61/3 1/2/3 3/6/3
f 1/2/3 41/61/3 11/22/3
f 11/22/3 41/61/3 13/26/2
f 42/62/2 36/56/2 33/53/2
f 44/64/3 36/56/3 43/63/3
f 36/56/3 44/64/3 34/54/3
f 45/65/10 37/57/9 39/59/10
f 47/67/5 10/20/12 12/24/2
f 47/67/5 12/24/2 14/28/1
f 46/66/4 48/68/4 49/69/4
f 48/68/4 46/66/4 45/65/4
f 38/58/3 5/10/3 7/14/3
f 23/42/3 38/58/3 24/44/2
f 18/35/12 6/12/5 8/16/5
f 40/60/5 18/35/12 16/31/2
f 40/60/5 16/31/2 17/32/1
f 5/10/4 18/35/4 8/16/4
f 35/55/5 42/62/5 33/53/5
f 31/51/4 51/71/4 52/72/4
f 44/64/4 42/62/4 50/70/4
f 42/62/4 44/64/4 43/63/4
f 51/71/13 32/52/10 47/67/13
f 52/72/14 29/49/9 31/51/9
f 37/57/9 49/69/14 38/58/14
f 3/6/11 29/49/11 41/61/11
f 29/49/11 3/6/11 2/4/11
f 29/49/11 2/4/11 32/52/11
f 32/52/11 2/4/11 47/67/11
f 40/60/13 45/65/10 39/59/10
f 34/54/1 47/67/1 14/28/1
f 11/22/1 35/55/1 10/20/1
f 34/54/1 51/71/1 47/67/1
f 51/71/1 44/64/1 48/68/1
f 51/71/1 48/68/1 52/72/1
f 41/61/1 40/60/1 17/32/1
f 41/61/1 17/32/1 13/26/1
f 13/26/1 17/32/1 16/31/1
f 50/70/1 49/69/1 44/64/1
f 49/69/1 50/70/1 35/55/1
f 18/35/1 35/55/1 11/22/1
f 49/69/1 35/55/1 38/58/1
f 23/42/1 35/55/1 18/35/1
f 22/40/1 35/55/1 23/42/1
f 24/44/1 35/55/1 22/40/1
f 10/19/2 9/17/2 12/23/2
f 12/23/2 13/25/2 14/27/2
f 15/29/3 16/30/3 17/33/3
f 10/19/3 20/37/3 21/38/3
f 13/25/4 20/37/4 14/27/4
f 27/47/5 22/39/5 23/41/5
f 9/17/5 28/48/5 13/25/5
f 13/25/5 28/48/5 25/45/5
f 21/38/7 11/21/6 10/19/6
f 26/46/8 19/36/7 15/29/8
f 25/45/8 21/38/7 20/37/8
f 23/41/6 19/36/7 27/47/7
f 19/36/7 23/41/6 18/34/6
f 10/20/4 1/2/4 11/22/4
f 1/2/4 10/20/4 4/8/4
f 7/14/11 37/57/11 38/58/11
f 39/59/11 6/12/11 40/60/11
f 11/22/3 13/26/3 9/18/3
f 36/56/2 42/62/2 43/63/2
f 37/57/9 45/65/10 46/66/9
f 10/20/12 2/4/5 4/8/5
f 2/4/5 10/20/12 47/67/5
f 5/10/3 38/58/3 23/42/3
f 23/42/3 24/44/3 22/40/3
f 6/12/5 18/35/12 40/60/5
f 18/35/4 5/10/4 23/42/4
f 42/62/5 35/55/5 50/70/5
f 51/71/4 31/51/4 30/50/4
f 32/52/10 51/71/13 30/50/10
f 29/49/9 52/72/14 41/61/14
f 49/69/14 37/57/9 46/66/9
f 45/65/10 40/60/13 48/68/13
f 34/54/1 14/28/1 12/24/1
f 34/54/1 12/24/1 10/20/1
f 34/54/1 10/20/1 35/55/1
f 44/64/1 51/71/1 34/54/1
f 40/60/1 52/72/1 48/68/1
f 52/72/1 40/60/1 41/61/1
f 13/26/1 16/31/1 9/18/1
f 48/68/1 44/64/1 49/69/1
f 9/18/1 16/31/1 18/35/1
f 9/18/1 18/35/1 11/22/1
f 38/58/1 35/55/1 24/44/1
usemtl colormap.005
f 53/73/1 54/74/1 55/75/1
f 54/74/1 53/73/1 56/76/1
f 57/77/11 58/78/11 59/79/11
f 58/78/11 57/77/11 60/80/11
f 61/81/4 62/82/4 63/83/4
f 62/82/4 61/81/4 64/84/4
f 66/86/3 65/85/3 68/88/3
f 69/89/5 70/90/5 71/91/5
f 70/90/5 69/89/5 72/92/5
f 59/79/5 62/82/5 57/77/5
f 66/86/4 69/89/4 71/91/4
f 67/87/11 72/92/11 65/85/11
f 72/92/11 67/87/11 70/90/11
f 60/80/3 61/81/3 58/78/3
f 63/83/1 65/85/1 61/81/1
f 65/85/1 63/83/1 59/79/1
f 68/88/1 59/79/1 69/89/1
f 64/84/2 70/90/2 62/82/2
f 71/91/2 60/80/2 66/86/2
f 57/77/2 67/87/2 66/86/2
f 65/85/3 66/86/3 67/87/3
f 62/82/5 59/79/5 63/83/5
f 69/89/4 66/86/4 68/88/4
f 61/81/3 60/80/3 64/84/3
f 72/92/1 61/81/1 65/85/1
f 65/85/1 59/79/1 68/88/1
f 61/81/1 72/92/1 58/78/1
f 58/78/1 72/92/1 69/89/1
f 58/78/1 69/89/1 59/79/1
f 70/90/2 64/84/2 60/80/2
f 67/87/2 62/82/2 70/90/2
f 70/90/2 60/80/2 71/91/2
f 62/82/2 67/87/2 57/77/2
f 57/77/2 66/86/2 60/80/2
usemtl colormap.006
f 73/93/1 74/94/1 75/95/1
f 74/94/1 73/93/1 76/96/1
f 77/97/11 78/98/11 79/99/11
f 78/98/11 77/97/11 80/100/11
f 81/101/4 82/102/4 83/103/4
f 82/102/4 81/101/4 84/104/4
f 86/106/3 85/105/3 88/108/3
f 89/109/5 90/110/5 91/111/5
f 90/110/5 89/109/5 92/112/5
f 79/99/5 82/102/5 77/97/5
f 86/106/4 89/109/4 91/111/4
f 87/107/11 92/112/11 85/105/11
f 92/112/11 87/107/11 90/110/11
f 80/100/3 81/101/3 78/98/3
f 83/103/1 85/105/1 81/101/1
f 85/105/1 83/103/1 79/99/1
f 88/108/1 79/99/1 89/109/1
f 84/104/2 90/110/2 82/102/2
f 91/111/2 80/100/2 86/106/2
f 77/97/2 87/107/2 86/106/2
f 85/105/3 86/106/3 87/107/3
f 82/102/5 79/99/5 83/103/5
f 89/109/4 86/106/4 88/108/4
f 81/101/3 80/100/3 84/104/3
f 92/112/1 81/101/1 85/105/1
f 85/105/1 79/99/1 88/108/1
f 81/101/1 92/112/1 78/98/1
f 78/98/1 92/112/1 89/109/1
f 78/98/1 89/109/1 79/99/1
f 90/110/2 84/104/2 80/100/2
f 87/107/2 82/102/2 90/110/2
f 90/110/2 80/100/2 91/111/2
f 82/102/2 87/107/2 77/97/2
f 77/97/2 86/106/2 80/100/2
