# Blender 3.1.0
# www.blender.org
mtllib Windows_simple_white.mtl
o building-windows
v 0.500000 0.625000 -0.123608
v -0.500000 0.625000 0.000000
v 0.500000 0.625000 0.000000
v -0.500000 0.625000 -0.123608
v -0.500000 0.000000 0.000000
v -0.500000 0.000000 -0.123608
v 0.500000 0.000000 -0.123608
v 0.500000 0.000000 0.000000
v 0.375000 0.120000 -0.100000
v 0.062500 0.120000 0.000000
v 0.375000 0.120000 0.000000
v 0.062500 0.120000 -0.100000
v -0.062500 0.120000 -0.100000
v -0.375000 0.120000 0.000000
v -0.062500 0.120000 0.000000
v -0.375000 0.120000 -0.100000
v 0.375000 0.500000 -0.100000
v 0.375000 0.500000 0.000000
v 0.062500 0.500000 0.000000
v 0.062500 0.500000 -0.100000
v -0.375000 0.500000 0.000000
v -0.375000 0.500000 -0.100000
v -0.062500 0.500000 -0.100000
v -0.062500 0.500000 0.000000
vn -0.0000 1.0000 -0.0000
vn -1.0000 -0.0000 -0.0000
vn 1.0000 -0.0000 -0.0000
vn -0.0000 -1.0000 -0.0000
vn -0.0000 -0.0000 -1.0000
vn -0.0000 -0.0000 1.0000
vt 0.968750 0.225000
vt 0.968750 0.225000
vt 0.968750 0.225000
vt 0.968750 0.225000
vt 0.968750 0.025000
vt 0.968750 0.025000
vt 0.968750 0.025000
vt 0.968750 0.025000
vt 0.718750 0.313400
vt 0.968750 0.063400
vt 0.968750 0.063400
vt 0.968750 0.063400
vt 0.968750 0.063400
vt 0.718750 0.313400
vt 0.968750 0.063400
vt 0.718750 0.313400
vt 0.968750 0.063400
vt 0.968750 0.063400
vt 0.968750 0.063400
vt 0.718750 0.313400
vt 0.968750 0.185000
vt 0.718750 0.435000
vt 0.968750 0.185000
vt 0.968750 0.185000
vt 0.968750 0.185000
vt 0.718750 0.435000
vt 0.968750 0.185000
vt 0.968750 0.185000
vt 0.718750 0.435000
vt 0.968750 0.185000
vt 0.718750 0.435000
vt 0.968750 0.185000
s 1
usemtl colormap.015
f 1/1/1 2/2/1 3/3/1
f 2/2/1 1/1/1 4/4/1
f 4/4/2 5/5/2 2/2/2
f 3/3/3 7/7/3 1/1/3
f 7/7/3 3/3/3 8/8/3
f 10/11/1 9/10/1 12/13/1
f 14/17/1 13/15/1 16/19/1
f 7/7/4 5/5/4 6/6/4
f 11/12/2 17/21/2 9/10/2
f 17/21/2 11/12/2 18/23/2
f 12/13/3 19/24/3 10/11/3
f 19/24/4 17/21/4 18/23/4
f 17/21/4 19/24/4 20/25/4
f 4/4/5 7/7/5 6/6/5
f 21/27/3 16/19/3 22/28/3
f 15/18/2 23/30/2 13/15/2
f 21/27/4 23/30/4 24/32/4
f 11/12/6 3/3/6 18/23/6
f 5/5/6 14/17/6 2/2/6
f 14/17/6 10/11/6 15/18/6
f 19/24/6 15/18/6 10/11/6
f 2/2/6 14/17/6 21/27/6
f 17/22/6 12/14/6 9/9/6
f 5/5/2 4/4/2 6/6/2
f 9/10/1 10/11/1 11/12/1
f 13/15/1 14/17/1 15/18/1
f 5/5/4 7/7/4 8/8/4
f 19/24/3 12/13/3 20/25/3
f 7/7/5 4/4/5 1/1/5
f 16/19/3 21/27/3 14/17/3
f 23/30/2 15/18/2 24/32/2
f 23/30/4 21/27/4 22/28/4
f 18/23/6 3/3/6 19/24/6
f 11/12/6 8/8/6 3/3/6
f 8/8/6 11/12/6 5/5/6
f 10/11/6 5/5/6 11/12/6
f 14/17/6 5/5/6 10/11/6
f 2/2/6 21/27/6 3/3/6
f 15/18/6 19/24/6 24/32/6
f 19/24/6 3/3/6 24/32/6
f 24/32/6 3/3/6 21/27/6
f 12/14/6 17/22/6 20/26/6
f 23/31/6 16/20/6 13/16/6
f 16/20/6 23/31/6 22/29/6
o window-white
v -0.391125 0.112889 -0.075509
v -0.045749 0.112889 -0.124638
v -0.045749 0.112889 -0.075509
v -0.391125 0.112889 -0.124638
v -0.338361 0.459739 -0.075509
v -0.098513 0.459739 -0.124638
v -0.098513 0.459739 -0.075509
v -0.338361 0.459739 -0.124638
v -0.045749 0.509577 -0.075509
v -0.045749 0.509577 -0.124638
v -0.338361 0.336152 -0.124638
v -0.338361 0.286314 -0.124638
v -0.338361 0.162727 -0.124638
v -0.338361 0.162727 -0.075509
v -0.098513 0.162727 -0.075509
v -0.098513 0.286314 -0.124638
v -0.098513 0.162727 -0.124638
v -0.098513 0.336152 -0.124638
v -0.391125 0.509577 -0.124638
v -0.391125 0.509577 -0.075509
vn -0.0000 -1.0439 -0.0000
vn 1.1052 -0.0000 -0.0000
vn -1.1052 -0.0000 -0.0000
vn -0.0000 1.0439 -0.0000
vn -0.0000 -0.0000 0.9826
vn -0.0000 -0.0000 -0.9826
vt 0.468750 0.025000
vt 0.468750 0.025000
vt 0.468750 0.025000
vt 0.468750 0.025000
vt 0.468750 0.199873
vt 0.468750 0.199873
vt 0.468750 0.199873
vt 0.468750 0.199873
vt 0.468750 0.225000
vt 0.468750 0.225000
vt 0.468750 0.137564
vt 0.468750 0.112436
vt 0.468750 0.050127
vt 0.468750 0.050127
vt 0.468750 0.050127
vt 0.468750 0.112436
vt 0.468750 0.050127
vt 0.468750 0.137564
vt 0.468750 0.225000
vt 0.468750 0.225000
s 1
usemtl colormap.018
f 25/33/7 26/34/7 27/35/7
f 26/34/7 25/33/7 28/36/7
f 30/38/7 29/37/7 32/40/7
f 33/41/8 26/34/8 34/42/8
f 26/34/8 33/41/8 27/35/8
f 35/43/8 29/37/8 36/44/8
f 36/44/8 29/37/8 37/45/8
f 37/45/8 29/37/8 38/46/8
f 39/47/9 40/48/9 41/49/9
f 40/48/9 39/47/9 42/50/9
f 42/50/9 39/47/9 30/38/9
f 25/33/9 43/51/9 28/36/9
f 43/51/9 25/33/9 44/52/9
f 44/52/10 34/42/10 43/51/10
f 38/46/10 41/49/10 37/45/10
f 31/39/11 33/41/11 29/37/11
f 44/52/11 38/46/11 29/37/11
f 25/33/11 38/46/11 44/52/11
f 28/36/12 37/45/12 26/34/12
f 26/34/12 41/49/12 34/42/12
f 32/40/12 43/51/12 30/38/12
f 34/42/12 42/50/12 30/38/12
f 34/42/12 40/48/12 42/50/12
f 29/37/7 30/38/7 31/39/7
f 29/37/8 35/43/8 32/40/8
f 30/38/9 39/47/9 31/39/9
f 34/42/10 44/52/10 33/41/10
f 41/49/10 38/46/10 39/47/10
f 39/47/11 33/41/11 31/39/11
f 39/47/11 27/35/11 33/41/11
f 44/52/11 29/37/11 33/41/11
f 27/35/11 39/47/11 25/33/11
f 38/46/11 25/33/11 39/47/11
f 37/45/12 28/36/12 43/51/12
f 41/49/12 26/34/12 37/45/12
f 37/45/12 43/51/12 36/44/12
f 36/44/12 43/51/12 35/43/12
f 35/43/12 43/51/12 32/40/12
f 34/42/12 30/38/12 43/51/12
f 34/42/12 41/49/12 40/48/12
o window-white.001
v 0.047800 0.112889 -0.074638
v 0.394020 0.112889 -0.124638
v 0.394020 0.112889 -0.074638
v 0.047800 0.112889 -0.124638
v 0.100693 0.455882 -0.074638
v 0.341127 0.455882 -0.124638
v 0.341127 0.455882 -0.074638
v 0.100693 0.455882 -0.124638
v 0.394020 0.505166 -0.074638
v 0.394020 0.505166 -0.124638
v 0.100693 0.333670 -0.124638
v 0.100693 0.284386 -0.124638
v 0.100693 0.162173 -0.124638
v 0.100693 0.162173 -0.074638
v 0.341127 0.162173 -0.074638
v 0.341127 0.284386 -0.124638
v 0.341127 0.162173 -0.124638
v 0.341127 0.333670 -0.124638
v 0.047800 0.505166 -0.124638
v 0.047800 0.505166 -0.074638
vn -0.0000 -1.0323 -0.0000
vn 1.1079 -0.0000 -0.0000
vn -1.1079 -0.0000 -0.0000
vn -0.0000 1.0323 -0.0000
vn -0.0000 -0.0000 1.0000
vn -0.0000 -0.0000 -1.0000
vt 0.468750 0.025000
vt 0.468750 0.025000
vt 0.468750 0.025000
vt 0.468750 0.025000
vt 0.468750 0.199873
vt 0.468750 0.199873
vt 0.468750 0.199873
vt 0.468750 0.199873
vt 0.468750 0.225000
vt 0.468750 0.225000
vt 0.468750 0.137564
vt 0.468750 0.112436
vt 0.468750 0.050127
vt 0.468750 0.050127
vt 0.468750 0.050127
vt 0.468750 0.112436
vt 0.468750 0.050127
vt 0.468750 0.137564
vt 0.468750 0.225000
vt 0.468750 0.225000
s 1
usemtl colormap.019
f 45/53/13 46/54/13 47/55/13
f 46/54/13 45/53/13 48/56/13
f 50/58/13 49/57/13 52/60/13
f 53/61/14 46/54/14 54/62/14
f 46/54/14 53/61/14 47/55/14
f 55/63/14 49/57/14 56/64/14
f 56/64/14 49/57/14 57/65/14
f 57/65/14 49/57/14 58/66/14
f 59/67/15 60/68/15 61/69/15
f 60/68/15 59/67/15 62/70/15
f 62/70/15 59/67/15 50/58/15
f 45/53/15 63/71/15 48/56/15
f 63/71/15 45/53/15 64/72/15
f 64/72/16 54/62/16 63/71/16
f 58/66/16 61/69/16 57/65/16
f 51/59/17 53/61/17 49/57/17
f 64/72/17 58/66/17 49/57/17
f 45/53/17 58/66/17 64/72/17
f 48/56/18 57/65/18 46/54/18
f 46/54/18 61/69/18 54/62/18
f 52/60/18 63/71/18 50/58/18
f 54/62/18 62/70/18 50/58/18
f 54/62/18 60/68/18 62/70/18
f 49/57/13 50/58/13 51/59/13
f 49/57/14 55/63/14 52/60/14
f 50/58/15 59/67/15 51/59/15
f 54/62/16 64/72/16 53/61/16
f 61/69/16 58/66/16 59/67/16
f 59/67/17 53/61/17 51/59/17
f 59/67/17 47/55/17 53/61/17
f 64/72/17 49/57/17 53/61/17
f 47/55/17 59/67/17 45/53/17
f 58/66/17 45/53/17 59/67/17
f 57/65/18 48/56/18 63/71/18
f 61/69/18 46/54/18 57/65/18
f 57/65/18 63/71/18 56/64/18
f 56/64/18 63/71/18 55/63/18
f 55/63/18 63/71/18 52/60/18
f 54/62/18 50/58/18 63/71/18
f 54/62/18 61/69/18 60/68/18
