# Blender 3.1.0
# www.blender.org
mtllib window_door.mtl
o building-door-window
v -0.354167 0.500000 0.000000
v -0.104167 0.500000 -0.100000
v -0.104167 0.500000 0.000000
v -0.354167 0.500000 -0.100000
v -0.104167 0.000000 0.000000
v -0.104167 0.000000 -0.100000
v 0.520833 0.625000 0.000000
v 0.520833 0.000000 -0.119767
v 0.520833 0.625000 -0.119767
v 0.520833 0.000000 0.000000
v 0.020833 0.500000 0.000000
v 0.395833 0.500000 -0.100000
v 0.395833 0.500000 0.000000
v 0.020833 0.500000 -0.100000
v -0.354167 0.000000 -0.100000
v -0.354167 0.000000 0.000000
v 0.395833 0.000000 0.000000
v 0.395833 0.000000 -0.100000
v -0.479167 0.625000 0.000000
v -0.479167 0.625000 -0.119767
v -0.479167 0.000000 -0.119767
v -0.479167 0.000000 0.000000
v 0.020833 0.000000 -0.100000
v 0.020833 0.000000 0.000000
vn -0.0000 -1.0000 -0.0000
vn 1.0000 -0.0000 -0.0000
vn -1.0000 -0.0000 -0.0000
vn -0.0000 1.0000 -0.0000
vn -0.0000 -0.0000 -1.0000
vn -0.0000 -0.0000 1.0000
vt 0.968750 0.185000
vt 0.718750 0.435000
vt 0.968750 0.185000
vt 0.968750 0.185000
vt 0.968750 0.185000
vt 0.718750 0.435000
vt 0.968750 0.025000
vt 0.718750 0.275000
vt 0.968750 0.025000
vt 0.968750 0.225000
vt 0.968750 0.025000
vt 0.968750 0.225000
vt 0.968750 0.025000
vt 0.968750 0.185000
vt 0.718750 0.435000
vt 0.968750 0.185000
vt 0.968750 0.185000
vt 0.718750 0.435000
vt 0.968750 0.185000
vt 0.718750 0.275000
vt 0.968750 0.025000
vt 0.968750 0.025000
vt 0.968750 0.025000
vt 0.718750 0.275000
vt 0.968750 0.025000
vt 0.968750 0.225000
vt 0.968750 0.225000
vt 0.968750 0.025000
vt 0.968750 0.025000
vt 0.718750 0.275000
vt 0.968750 0.025000
vt 0.968750 0.025000
s 1
usemtl colormap.001
f 1/1/1 2/3/1 3/4/1
f 2/3/1 1/1/1 4/5/1
f 11/14/1 12/16/1 13/17/1
f 12/16/1 11/14/1 14/19/1
f 1/1/2 15/21/2 4/5/2
f 15/21/2 1/1/2 16/22/2
f 17/23/3 12/16/3 18/25/3
f 9/12/4 19/26/4 7/10/4
f 19/26/4 9/12/4 20/27/4
f 8/11/5 20/27/5 9/12/5
f 23/31/2 11/14/2 24/32/2
f 21/28/1 15/21/1 22/29/1
f 22/29/1 15/21/1 16/22/1
f 8/11/1 18/25/1 21/28/1
f 17/23/1 8/11/1 10/13/1
f 17/23/6 7/10/6 13/17/6
f 11/14/6 5/7/6 24/32/6
f 3/4/6 7/10/6 1/1/6
f 19/26/6 1/1/6 7/10/6
f 1/1/6 22/29/6 16/22/6
f 12/15/6 23/30/6 18/24/6
f 23/30/6 12/15/6 14/18/6
f 2/2/6 15/20/6 6/8/6
f 15/20/6 2/2/6 4/6/6
f 5/7/3 2/3/3 6/9/3
f 2/3/3 5/7/3 3/4/3
f 7/10/2 8/11/2 9/12/2
f 8/11/2 7/10/2 10/13/2
f 12/16/3 17/23/3 13/17/3
f 20/27/5 8/11/5 21/28/5
f 22/29/3 20/27/3 21/28/3
f 20/27/3 22/29/3 19/26/3
f 11/14/2 23/31/2 14/19/2
f 5/7/1 23/31/1 24/32/1
f 6/9/1 23/31/1 5/7/1
f 21/28/1 23/31/1 6/9/1
f 21/28/1 6/9/1 15/21/1
f 21/28/1 18/25/1 23/31/1
f 8/11/1 17/23/1 18/25/1
f 7/10/6 17/23/6 10/13/6
f 13/17/6 7/10/6 11/14/6
f 11/14/6 7/10/6 3/4/6
f 5/7/6 11/14/6 3/4/6
f 22/29/6 1/1/6 19/26/6
o window-brown-large
v 0.068071 0.452258 -0.022080
v 0.068071 0.213871 -0.072080
v 0.068071 0.452258 -0.072080
v 0.068071 0.166129 -0.072080
v 0.068071 0.047742 -0.072080
v 0.068071 0.047742 -0.022080
v 0.395329 0.500000 -0.072080
v 0.020329 0.500000 -0.022080
v 0.395329 0.500000 -0.022080
v 0.020329 0.500000 -0.072080
v 0.020329 -0.000000 -0.022080
v 0.395329 0.000000 -0.072080
v 0.395329 -0.000000 -0.022080
v 0.020329 -0.000000 -0.072080
v 0.347588 0.047742 -0.022080
v 0.347588 0.166129 -0.072080
v 0.347588 0.047742 -0.072080
v 0.347588 0.213871 -0.072080
v 0.347588 0.452258 -0.072080
v 0.347588 0.452258 -0.022080
vn 1.0000 -0.0000 -0.0000
vn -0.0000 1.0000 -0.0000
vn -1.0000 -0.0000 -0.0000
vn -0.0000 -1.0000 -0.0000
vn -0.0000 -0.0000 1.0000
vn -0.0000 -0.0000 -1.0000
vt 0.593750 0.205903
vt 0.593750 0.110548
vt 0.593750 0.205903
vt 0.593750 0.091452
vt 0.593750 0.044097
vt 0.593750 0.044097
vt 0.593750 0.225000
vt 0.593750 0.225000
vt 0.593750 0.225000
vt 0.593750 0.225000
vt 0.593750 0.025000
vt 0.593750 0.025000
vt 0.593750 0.025000
vt 0.593750 0.025000
vt 0.593750 0.044097
vt 0.593750 0.091452
vt 0.593750 0.044097
vt 0.593750 0.110548
vt 0.593750 0.205903
vt 0.593750 0.205903
s 1
usemtl colormap.002
f 25/33/7 26/34/7 27/35/7
f 26/34/7 25/33/7 28/36/7
f 28/36/7 25/33/7 29/37/7
f 31/39/8 32/40/8 33/41/8
f 32/40/8 31/39/8 34/42/8
f 40/48/9 39/47/9 42/50/9
f 42/50/9 39/47/9 43/51/9
f 43/51/10 25/33/10 27/35/10
f 35/43/9 34/42/9 38/46/9
f 33/41/7 36/44/7 31/39/7
f 39/47/11 33/41/11 44/52/11
f 44/52/11 33/41/11 25/33/11
f 32/40/11 30/38/11 25/33/11
f 35/43/11 30/38/11 32/40/11
f 28/36/12 34/42/12 26/34/12
f 27/35/12 34/42/12 43/51/12
f 29/37/12 38/46/12 34/42/12
f 38/46/12 29/37/12 36/44/12
f 41/49/12 36/44/12 29/37/12
f 31/39/12 40/48/12 42/50/12
f 29/37/7 25/33/7 30/38/7
f 35/43/10 36/44/10 37/45/10
f 36/44/10 35/43/10 38/46/10
f 39/47/9 40/48/9 41/49/9
f 43/51/9 39/47/9 44/52/9
f 25/33/10 43/51/10 44/52/10
f 34/42/9 35/43/9 32/40/9
f 36/44/7 33/41/7 37/45/7
f 41/49/8 30/38/8 39/47/8
f 30/38/8 41/49/8 29/37/8
f 39/47/11 37/45/11 33/41/11
f 32/40/11 25/33/11 33/41/11
f 37/45/11 39/47/11 35/43/11
f 30/38/11 35/43/11 39/47/11
f 26/34/12 34/42/12 27/35/12
f 29/37/12 34/42/12 28/36/12
f 31/39/12 43/51/12 34/42/12
f 36/44/12 41/49/12 31/39/12
f 31/39/12 42/50/12 43/51/12
f 31/39/12 41/49/12 40/48/12
