# Blender 3.1.0
# www.blender.org
mtllib windows_tall_top.mtl
o window-white-round-middle
o building-windows-high-top-square
v 0.500000 0.625000 -0.147586
v -0.500000 0.625000 0.000000
v 0.500000 0.625000 0.000000
v -0.500000 0.625000 -0.147586
v -0.500000 0.000000 0.000000
v -0.500000 0.000000 -0.147586
v 0.062500 0.500000 0.000000
v 0.062500 0.000000 -0.100000
v 0.062500 0.500000 -0.100000
v 0.062500 0.000000 0.000000
v -0.062500 0.000000 0.000000
v -0.062500 0.000000 -0.100000
v -0.375000 0.000000 -0.100000
v 0.375000 0.000000 -0.100000
v -0.375000 0.000000 0.000000
v 0.500000 0.000000 -0.147586
v 0.375000 0.000000 0.000000
v 0.500000 0.000000 0.000000
v 0.375000 0.500000 -0.100000
v 0.375000 0.500000 0.000000
v -0.375000 0.500000 0.000000
v -0.062500 0.500000 -0.100000
v -0.062500 0.500000 0.000000
v -0.375000 0.500000 -0.100000
v 0.099786 0.621888 -0.093135
v 0.042809 0.621888 -0.043135
v 0.099786 0.621888 -0.043135
v 0.042809 0.621888 -0.093135
v 0.341940 -0.003112 -0.043135
v 0.398917 -0.003112 -0.093135
v 0.398917 -0.003112 -0.043135
v 0.341940 -0.003112 -0.093135
v 0.341940 0.621888 -0.093135
v 0.341940 0.621888 -0.043135
v 0.099786 -0.003112 -0.043135
v 0.099786 -0.003112 -0.093135
v 0.398917 0.621888 -0.093135
v 0.398917 0.621888 -0.043135
v 0.042809 -0.003112 -0.043135
v 0.042809 -0.003112 -0.093135
v -0.341821 0.621888 -0.093135
v -0.398678 0.621888 -0.043135
v -0.341821 0.621888 -0.043135
v -0.398678 0.621888 -0.093135
v -0.100175 -0.003112 -0.043135
v -0.043318 -0.003112 -0.093135
v -0.043318 -0.003112 -0.043135
v -0.100175 -0.003112 -0.093135
v -0.100175 0.621888 -0.093135
v -0.100175 0.621888 -0.043135
v -0.341821 -0.003112 -0.043135
v -0.341821 -0.003112 -0.093135
v -0.043318 0.621888 -0.093135
v -0.043318 0.621888 -0.043135
v -0.398678 -0.003112 -0.043135
v -0.398678 -0.003112 -0.093135
vn -0.0000 1.0000 -0.0000
vn -1.0000 -0.0000 -0.0000
vn -0.0000 -1.0000 -0.0000
vn 1.0000 -0.0000 -0.0000
vn -0.0000 -0.0000 -1.0000
vn -0.0000 -0.0000 1.0000
vt 0.968750 0.225000
vt 0.968750 0.225000
vt 0.968750 0.225000
vt 0.968750 0.225000
vt 0.968750 0.025000
vt 0.968750 0.025000
vt 0.968750 0.185000
vt 0.968750 0.025000
vt 0.718750 0.275000
vt 0.968750 0.185000
vt 0.718750 0.435000
vt 0.968750 0.025000
vt 0.968750 0.025000
vt 0.968750 0.025000
vt 0.718750 0.275000
vt 0.718750 0.275000
vt 0.968750 0.025000
vt 0.718750 0.275000
vt 0.968750 0.025000
vt 0.968750 0.025000
vt 0.968750 0.025000
vt 0.968750 0.025000
vt 0.968750 0.025000
vt 0.968750 0.185000
vt 0.718750 0.435000
vt 0.968750 0.185000
vt 0.968750 0.185000
vt 0.718750 0.435000
vt 0.968750 0.185000
vt 0.968750 0.185000
vt 0.968750 0.185000
vt 0.718750 0.435000
vt 0.468750 0.225000
vt 0.468750 0.225000
vt 0.468750 0.225000
vt 0.468750 0.225000
vt 0.468750 0.025000
vt 0.468750 0.025000
vt 0.468750 0.025000
vt 0.468750 0.025000
vt 0.468750 0.225000
vt 0.468750 0.225000
vt 0.468750 0.025000
vt 0.468750 0.025000
vt 0.468750 0.225000
vt 0.468750 0.225000
vt 0.468750 0.025000
vt 0.468750 0.025000
vt 0.468750 0.225000
vt 0.468750 0.225000
vt 0.468750 0.225000
vt 0.468750 0.225000
vt 0.468750 0.025000
vt 0.468750 0.025000
vt 0.468750 0.025000
vt 0.468750 0.025000
vt 0.468750 0.225000
vt 0.468750 0.225000
vt 0.468750 0.025000
vt 0.468750 0.025000
vt 0.468750 0.225000
vt 0.468750 0.225000
vt 0.468750 0.025000
vt 0.468750 0.025000
s 1
usemtl colormap.027
f 1/1/1 2/2/1 3/3/1
f 2/2/1 1/1/1 4/4/1
f 5/5/2 4/4/2 6/6/2
f 4/4/2 5/5/2 2/2/2
f 11/13/3 8/8/3 10/12/3
f 12/14/3 8/8/3 11/13/3
f 6/6/3 8/8/3 12/14/3
f 6/6/3 12/14/3 13/17/3
f 6/6/3 14/19/3 8/8/3
f 16/21/3 14/19/3 6/6/3
f 7/7/3 19/24/3 20/26/3
f 21/27/3 22/29/3 23/30/3
f 22/29/3 21/27/3 24/31/3
f 21/27/4 13/17/4 24/31/4
f 13/17/4 21/27/4 15/20/4
f 11/13/2 22/29/2 12/14/2
f 17/22/2 19/24/2 14/19/2
f 4/4/5 16/21/5 6/6/5
f 3/3/6 17/22/6 18/23/6
f 17/22/6 3/3/6 20/26/6
f 22/28/6 13/16/6 12/15/6
f 13/16/6 22/28/6 24/32/6
f 19/25/6 8/9/6 14/18/6
f 7/7/4 8/8/4 9/10/4
f 8/8/4 7/7/4 10/12/4
f 6/6/3 13/17/3 5/5/3
f 5/5/3 13/17/3 15/20/3
f 16/21/3 17/22/3 14/19/3
f 17/22/3 16/21/3 18/23/3
f 19/24/3 7/7/3 9/10/3
f 22/29/2 11/13/2 23/30/2
f 19/24/2 17/22/2 20/26/2
f 16/21/5 4/4/5 1/1/5
f 3/3/4 16/21/4 1/1/4
f 16/21/4 3/3/4 18/23/4
f 20/26/6 3/3/6 7/7/6
f 7/7/6 3/3/6 23/30/6
f 11/13/6 7/7/6 23/30/6
f 7/7/6 11/13/6 10/12/6
f 23/30/6 3/3/6 21/27/6
f 2/2/6 21/27/6 3/3/6
f 5/5/6 21/27/6 2/2/6
f 21/27/6 5/5/6 15/20/6
f 8/9/6 19/25/6 9/11/6
usemtl colormap.028
f 25/33/1 26/34/1 27/35/1
f 26/34/1 25/33/1 28/36/1
f 29/37/3 30/38/3 31/39/3
f 29/37/2 33/41/2 32/40/2
f 28/36/2 39/47/2 26/34/2
f 35/43/6 26/34/6 39/47/6
f 34/42/6 31/39/6 38/46/6
f 28/36/5 36/44/5 40/48/5
f 36/44/5 28/36/5 25/33/5
f 30/38/3 29/37/3 32/40/3
f 33/41/2 29/37/2 34/42/2
f 25/33/4 35/43/4 36/44/4
f 35/43/4 25/33/4 27/35/4
f 37/45/1 34/42/1 38/46/1
f 34/42/1 37/45/1 33/41/1
f 39/47/2 28/36/2 40/48/2
f 37/45/4 31/39/4 30/38/4
f 31/39/4 37/45/4 38/46/4
f 26/34/6 35/43/6 27/35/6
f 31/39/6 34/42/6 29/37/6
f 33/41/5 30/38/5 32/40/5
f 30/38/5 33/41/5 37/45/5
f 39/47/3 36/44/3 35/43/3
f 36/44/3 39/47/3 40/48/3
usemtl colormap.029
f 41/49/1 42/50/1 43/51/1
f 42/50/1 41/49/1 44/52/1
f 45/53/3 46/54/3 47/55/3
f 45/53/2 49/57/2 48/56/2
f 44/52/2 55/63/2 42/50/2
f 51/59/6 42/50/6 55/63/6
f 50/58/6 47/55/6 54/62/6
f 44/52/5 52/60/5 56/64/5
f 52/60/5 44/52/5 41/49/5
f 46/54/3 45/53/3 48/56/3
f 49/57/2 45/53/2 50/58/2
f 41/49/4 51/59/4 52/60/4
f 51/59/4 41/49/4 43/51/4
f 53/61/1 50/58/1 54/62/1
f 50/58/1 53/61/1 49/57/1
f 55/63/2 44/52/2 56/64/2
f 53/61/4 47/55/4 46/54/4
f 47/55/4 53/61/4 54/62/4
f 42/50/6 51/59/6 43/51/6
f 47/55/6 50/58/6 45/53/6
f 49/57/5 46/54/5 48/56/5
f 46/54/5 49/57/5 53/61/5
f 55/63/3 52/60/3 51/59/3
f 52/60/3 55/63/3 56/64/3
