# Blender 3.1.0
# www.blender.org
mtllib Windows_detailed_white.mtl
o building-windows
v 0.500000 0.625000 -0.123608
v -0.500000 0.625000 0.000000
v 0.500000 0.625000 0.000000
v -0.500000 0.625000 -0.123608
v -0.500000 0.000000 0.000000
v -0.500000 0.000000 -0.123608
v 0.500000 0.000000 -0.123608
v 0.500000 0.000000 0.000000
v 0.375000 0.120000 -0.100000
v 0.062500 0.120000 0.000000
v 0.375000 0.120000 0.000000
v 0.062500 0.120000 -0.100000
v -0.062500 0.120000 -0.100000
v -0.375000 0.120000 0.000000
v -0.062500 0.120000 0.000000
v -0.375000 0.120000 -0.100000
v 0.375000 0.500000 -0.100000
v 0.375000 0.500000 0.000000
v 0.062500 0.500000 0.000000
v 0.062500 0.500000 -0.100000
v -0.375000 0.500000 0.000000
v -0.375000 0.500000 -0.100000
v -0.062500 0.500000 -0.100000
v -0.062500 0.500000 0.000000
v 0.400029 0.511009 -0.077282
v 0.043941 0.511009 -0.027282
v 0.400029 0.511009 -0.027282
v 0.043941 0.511009 -0.077282
v 0.043941 0.101671 -0.027282
v 0.400029 0.101671 -0.077282
v 0.400029 0.101671 -0.027282
v 0.043941 0.101671 -0.077282
v 0.345628 0.332054 -0.052282
v 0.098342 0.280626 -0.052282
v 0.345628 0.280626 -0.052282
v 0.098342 0.332054 -0.052282
v 0.098342 0.459581 -0.027282
v 0.345628 0.459581 -0.077282
v 0.345628 0.459581 -0.027282
v 0.098342 0.459581 -0.077282
v 0.345628 0.153099 -0.027282
v 0.345628 0.153099 -0.077282
v 0.098342 0.153099 -0.077282
v 0.098342 0.153099 -0.027282
v -0.039990 0.511009 -0.077282
v -0.396078 0.511009 -0.027282
v -0.039990 0.511009 -0.027282
v -0.396078 0.511009 -0.077282
v -0.396078 0.101671 -0.027282
v -0.039990 0.101671 -0.077282
v -0.039990 0.101671 -0.027282
v -0.396078 0.101671 -0.077282
v -0.094391 0.332054 -0.052282
v -0.341677 0.280626 -0.052282
v -0.094391 0.280626 -0.052282
v -0.341677 0.332054 -0.052282
v -0.341677 0.459581 -0.027282
v -0.094391 0.459581 -0.077282
v -0.094391 0.459581 -0.027282
v -0.341677 0.459581 -0.077282
v -0.094391 0.153099 -0.027282
v -0.094391 0.153099 -0.077282
v -0.341677 0.153099 -0.077282
v -0.341677 0.153099 -0.027282
vn -0.0000 1.0000 -0.0000
vn -1.0000 -0.0000 -0.0000
vn 1.0000 -0.0000 -0.0000
vn -0.0000 -1.0000 -0.0000
vn -0.0000 -0.0000 -1.0000
vn -0.0000 -0.0000 1.0000
vt 0.968750 0.225000
vt 0.968750 0.225000
vt 0.968750 0.225000
vt 0.968750 0.225000
vt 0.968750 0.025000
vt 0.968750 0.025000
vt 0.968750 0.025000
vt 0.968750 0.025000
vt 0.718750 0.313400
vt 0.968750 0.063400
vt 0.968750 0.063400
vt 0.968750 0.063400
vt 0.968750 0.063400
vt 0.718750 0.313400
vt 0.968750 0.063400
vt 0.718750 0.313400
vt 0.968750 0.063400
vt 0.968750 0.063400
vt 0.968750 0.063400
vt 0.718750 0.313400
vt 0.968750 0.185000
vt 0.718750 0.435000
vt 0.968750 0.185000
vt 0.968750 0.185000
vt 0.968750 0.185000
vt 0.718750 0.435000
vt 0.968750 0.185000
vt 0.968750 0.185000
vt 0.718750 0.435000
vt 0.968750 0.185000
vt 0.718750 0.435000
vt 0.968750 0.185000
vt 0.468750 0.225000
vt 0.468750 0.225000
vt 0.468750 0.225000
vt 0.468750 0.225000
vt 0.468750 0.025000
vt 0.468750 0.025000
vt 0.468750 0.025000
vt 0.468750 0.025000
vt 0.468750 0.137564
vt 0.468750 0.112436
vt 0.468750 0.112436
vt 0.468750 0.137564
vt 0.468750 0.199873
vt 0.468750 0.199873
vt 0.468750 0.199873
vt 0.468750 0.199873
vt 0.468750 0.050127
vt 0.468750 0.050127
vt 0.468750 0.050127
vt 0.468750 0.050127
vt 0.468750 0.225000
vt 0.468750 0.225000
vt 0.468750 0.225000
vt 0.468750 0.225000
vt 0.468750 0.025000
vt 0.468750 0.025000
vt 0.468750 0.025000
vt 0.468750 0.025000
vt 0.468750 0.137564
vt 0.468750 0.112436
vt 0.468750 0.112436
vt 0.468750 0.137564
vt 0.468750 0.199873
vt 0.468750 0.199873
vt 0.468750 0.199873
vt 0.468750 0.199873
vt 0.468750 0.050127
vt 0.468750 0.050127
vt 0.468750 0.050127
vt 0.468750 0.050127
s 1
usemtl colormap.015
f 1/1/1 2/2/1 3/3/1
f 2/2/1 1/1/1 4/4/1
f 4/4/2 5/5/2 2/2/2
f 3/3/3 7/7/3 1/1/3
f 7/7/3 3/3/3 8/8/3
f 10/11/1 9/10/1 12/13/1
f 14/17/1 13/15/1 16/19/1
f 7/7/4 5/5/4 6/6/4
f 11/12/2 17/21/2 9/10/2
f 17/21/2 11/12/2 18/23/2
f 12/13/3 19/24/3 10/11/3
f 19/24/4 17/21/4 18/23/4
f 17/21/4 19/24/4 20/25/4
f 4/4/5 7/7/5 6/6/5
f 21/27/3 16/19/3 22/28/3
f 15/18/2 23/30/2 13/15/2
f 21/27/4 23/30/4 24/32/4
f 11/12/6 3/3/6 18/23/6
f 5/5/6 14/17/6 2/2/6
f 14/17/6 10/11/6 15/18/6
f 19/24/6 15/18/6 10/11/6
f 2/2/6 14/17/6 21/27/6
f 17/22/6 12/14/6 9/9/6
f 5/5/2 4/4/2 6/6/2
f 9/10/1 10/11/1 11/12/1
f 13/15/1 14/17/1 15/18/1
f 5/5/4 7/7/4 8/8/4
f 19/24/3 12/13/3 20/25/3
f 7/7/5 4/4/5 1/1/5
f 16/19/3 21/27/3 14/17/3
f 23/30/2 15/18/2 24/32/2
f 23/30/4 21/27/4 22/28/4
f 18/23/6 3/3/6 19/24/6
f 11/12/6 8/8/6 3/3/6
f 8/8/6 11/12/6 5/5/6
f 10/11/6 5/5/6 11/12/6
f 14/17/6 5/5/6 10/11/6
f 2/2/6 21/27/6 3/3/6
f 15/18/6 19/24/6 24/32/6
f 19/24/6 3/3/6 24/32/6
f 24/32/6 3/3/6 21/27/6
f 12/14/6 17/22/6 20/26/6
f 23/31/6 16/20/6 13/16/6
f 16/20/6 23/31/6 22/29/6
usemtl colormap.022
f 25/33/1 26/34/1 27/35/1
f 26/34/1 25/33/1 28/36/1
f 33/41/6 34/42/6 35/43/6
f 34/42/6 33/41/6 36/44/6
f 28/36/2 29/37/2 26/34/2
f 41/49/2 38/46/2 42/50/2
f 42/50/1 44/52/1 41/49/1
f 43/51/5 28/36/5 40/48/5
f 43/51/5 32/40/5 28/36/5
f 32/40/5 43/51/5 30/38/5
f 25/33/5 42/50/5 38/46/5
f 41/49/6 31/39/6 27/35/6
f 39/47/6 27/35/6 37/45/6
f 26/34/6 44/52/6 37/45/6
f 29/37/4 30/38/4 31/39/4
f 30/38/4 29/37/4 32/40/4
f 27/35/3 30/38/3 25/33/3
f 30/38/3 27/35/3 31/39/3
f 29/37/2 28/36/2 32/40/2
f 37/45/4 38/46/4 39/47/4
f 38/46/4 37/45/4 40/48/4
f 38/46/2 41/49/2 39/47/2
f 37/45/3 43/51/3 40/48/3
f 43/51/3 37/45/3 44/52/3
f 44/52/1 42/50/1 43/51/1
f 40/48/5 28/36/5 38/46/5
f 25/33/5 38/46/5 28/36/5
f 30/38/5 42/50/5 25/33/5
f 42/50/5 30/38/5 43/51/5
f 31/39/6 41/49/6 29/37/6
f 44/52/6 29/37/6 41/49/6
f 41/49/6 27/35/6 39/47/6
f 29/37/6 44/52/6 26/34/6
f 26/34/6 37/45/6 27/35/6
usemtl colormap.023
f 45/53/1 46/54/1 47/55/1
f 46/54/1 45/53/1 48/56/1
f 53/61/6 54/62/6 55/63/6
f 54/62/6 53/61/6 56/64/6
f 48/56/2 49/57/2 46/54/2
f 61/69/2 58/66/2 62/70/2
f 62/70/1 64/72/1 61/69/1
f 63/71/5 48/56/5 60/68/5
f 63/71/5 52/60/5 48/56/5
f 52/60/5 63/71/5 50/58/5
f 45/53/5 62/70/5 58/66/5
f 61/69/6 51/59/6 47/55/6
f 59/67/6 47/55/6 57/65/6
f 46/54/6 64/72/6 57/65/6
f 49/57/4 50/58/4 51/59/4
f 50/58/4 49/57/4 52/60/4
f 47/55/3 50/58/3 45/53/3
f 50/58/3 47/55/3 51/59/3
f 49/57/2 48/56/2 52/60/2
f 57/65/4 58/66/4 59/67/4
f 58/66/4 57/65/4 60/68/4
f 58/66/2 61/69/2 59/67/2
f 57/65/3 63/71/3 60/68/3
f 63/71/3 57/65/3 64/72/3
f 64/72/1 62/70/1 63/71/1
f 60/68/5 48/56/5 58/66/5
f 45/53/5 58/66/5 48/56/5
f 50/58/5 62/70/5 45/53/5
f 62/70/5 50/58/5 63/71/5
f 51/59/6 61/69/6 49/57/6
f 64/72/6 49/57/6 61/69/6
f 61/69/6 47/55/6 59/67/6
f 49/57/6 64/72/6 46/54/6
f 46/54/6 57/65/6 47/55/6
